<?xml version="1.0" encoding="UTF-8"?>
<svg version="1.1" xmlns="http://www.w3.org/2000/svg" width="243" height="243">
<path d="M0 0 C4.42754894 3.51128338 8.58657047 7.26864805 12.69921875 11.140625 C13.31410156 11.69105469 13.92898437 12.24148437 14.5625 12.80859375 C33.24078039 30.19871687 43.20156816 57.19403256 44.984375 82.12890625 C45.0070449 84.83310144 45.021593 87.45593456 44.69921875 90.140625 C42.8539264 91.98591735 40.24648003 91.26606391 37.79054117 91.27436841 C36.50608425 91.27102232 36.50608425 91.27102232 35.19567871 91.26760864 C34.29306478 91.26916863 33.39045085 91.27072862 32.46048498 91.27233589 C29.41179148 91.27634997 26.36314707 91.27315467 23.31445312 91.27001953 C21.13861563 91.27137339 18.96277836 91.27315324 16.78694153 91.27532959 C10.85943101 91.27990574 4.9319378 91.27811362 -0.99557304 91.2749505 C-7.18377608 91.27242784 -13.37197758 91.27476418 -19.56018066 91.27633667 C-30.62111439 91.27827552 -41.68204042 91.27515775 -52.74297291 91.27007733 C-62.78161477 91.26560929 -72.82024507 91.26638522 -82.85888672 91.27099609 C-94.50295321 91.27632316 -106.14701247 91.27834272 -117.79108 91.27538383 C-123.95982866 91.27382062 -130.12856935 91.27362847 -136.2973175 91.27692032 C-142.09530243 91.27979791 -147.8932654 91.27782542 -153.69124794 91.27202606 C-155.82585425 91.27069786 -157.96046239 91.27109359 -160.09506798 91.27328873 C-162.99581777 91.27599787 -165.89649604 91.27262201 -168.79724121 91.26760864 C-170.08169813 91.27095473 -170.08169813 91.27095473 -171.39210367 91.27436841 C-177.18663143 91.25477482 -177.18663143 91.25477482 -178.30078125 90.140625 C-178.47801485 63.23656488 -168.8248977 39.11123097 -152.30078125 18.140625 C-151.59179688 17.19960938 -150.8828125 16.25859375 -150.15234375 15.2890625 C-149.23582031 14.22558594 -149.23582031 14.22558594 -148.30078125 13.140625 C-147.64078125 13.140625 -146.98078125 13.140625 -146.30078125 13.140625 C-146.08550781 12.58632813 -145.87023437 12.03203125 -145.6484375 11.4609375 C-137.06984351 -3.30916345 -114.89564122 -12.57779201 -99.34765625 -17.2421875 C-97.39453854 -17.83110467 -95.45641489 -18.46908289 -93.51953125 -19.109375 C-62.43867981 -28.35657047 -25.47420682 -19.04206045 0 0 Z " fill="#FEFDFD" transform="translate(181.30078125,28.859375)"/>
<path d="M0 0 C2.03952687 0.00880256 4.07905776 0.01671275 6.11859131 0.02380371 C11.62404856 0.04558315 17.12935726 0.08012965 22.63472915 0.1173327 C28.40109005 0.15438607 34.16750152 0.18049777 39.93391418 0.20805359 C49.60328957 0.25588138 59.27259326 0.31163325 68.94189453 0.37255859 C80.1335583 0.4430179 91.32523853 0.50275766 102.51699466 0.55641776 C114.4324652 0.61364377 126.34788564 0.67843818 138.263304 0.74557471 C141.70123423 0.76444081 145.13916927 0.78190241 148.57710838 0.79906654 C153.96241657 0.82634052 159.34767107 0.85867779 164.73292542 0.89502716 C166.71433821 0.90762617 168.69576267 0.91851762 170.6771946 0.92762566 C173.36937868 0.94029701 176.06145092 0.95904173 178.75358582 0.97944641 C179.94507784 0.98295993 179.94507784 0.98295993 181.16064042 0.98654443 C186.53742951 1.03694123 186.53742951 1.03694123 187.65161133 2.15112305 C187.79276294 4.82171156 187.6940824 7.47544542 187.65161133 10.15112305 C186.4070035 10.82780303 185.15564236 11.49207024 183.90161133 12.15112305 C183.20551758 12.52237305 182.50942383 12.89362305 181.79223633 13.27612305 C179.65161133 14.15112305 179.65161133 14.15112305 175.65161133 14.15112305 C176.14661133 14.74924805 176.64161133 15.34737305 177.15161133 15.96362305 C178.65161133 18.15112305 178.65161133 18.15112305 178.65161133 21.15112305 C167.82845715 26.96191484 158.8595185 28.49957744 146.65161133 29.15112305 C146.65161133 29.81112305 146.65161133 30.47112305 146.65161133 31.15112305 C148.63161133 32.14112305 148.63161133 32.14112305 150.65161133 33.15112305 C150.65161133 34.47112305 150.65161133 35.79112305 150.65161133 37.15112305 C149.33161133 37.81112305 148.01161133 38.47112305 146.65161133 39.15112305 C147.23168945 39.3934668 147.81176758 39.63581055 148.40942383 39.88549805 C153.17235537 41.92900003 157.54447382 43.96809148 161.65161133 47.15112305 C162.65161133 50.15112305 162.65161133 50.15112305 161.65161133 52.21362305 C156.36136298 57.33855113 147.85071841 56.53525862 140.96411133 56.71362305 C138.91842496 56.77367755 136.87284037 56.8373344 134.82739258 56.9050293 C133.92931885 56.92895752 133.03124512 56.95288574 132.10595703 56.97753906 C129.83180173 57.13837905 127.8364389 57.51956884 125.65161133 58.15112305 C129.97327868 59.59167883 134.42684359 59.89362941 138.93481445 60.40112305 C144.4475297 61.04908223 144.4475297 61.04908223 146.65161133 62.15112305 C146.65161133 62.81112305 146.65161133 63.47112305 146.65161133 64.15112305 C146.03866211 64.14064941 145.42571289 64.13017578 144.79418945 64.11938477 C124.78396449 62.84563308 124.78396449 62.84563308 105.65161133 67.15112305 C106.00611064 69.72124305 106.38739495 70.90314692 108.30395508 72.7019043 C111.17572175 74.47465877 113.64936381 74.9262745 116.96411133 75.52612305 C122.74113398 76.76730564 126.32354952 78.11815637 130.65161133 82.15112305 C131.32348633 84.3112793 131.32348633 84.3112793 131.65161133 86.15112305 C128.97888642 87.86166698 127.57752847 88.14972526 124.33911133 88.08862305 C119.85833015 88.16456849 117.57150828 89.03437869 113.65161133 91.15112305 C113.32161133 92.14112305 112.99161133 93.13112305 112.65161133 94.15112305 C113.88911133 94.08924805 115.12661133 94.02737305 116.40161133 93.96362305 C125.1896426 93.97748429 133.33330095 96.32769121 140.65161133 101.15112305 C139.99161133 101.81112305 139.33161133 102.47112305 138.65161133 103.15112305 C136.51489258 102.9440918 136.51489258 102.9440918 133.96411133 102.33862305 C133.06047852 102.14010742 132.1568457 101.9415918 131.22583008 101.73706055 C130.37633789 101.54370117 129.5268457 101.3503418 128.65161133 101.15112305 C120.6511563 99.52140073 112.58210276 100.43720732 104.65161133 102.15112305 C104.65161133 102.81112305 104.65161133 103.47112305 104.65161133 104.15112305 C107.62161133 104.64612305 107.62161133 104.64612305 110.65161133 105.15112305 C110.98161133 106.14112305 111.31161133 107.13112305 111.65161133 108.15112305 C101.8655279 114.55570252 89.43890126 113.44237846 78.15795898 113.35693359 C75.62839862 113.33845346 73.09920156 113.33642608 70.56958008 113.33666992 C68.95108733 113.3317611 67.33259705 113.32593557 65.71411133 113.3190918 C64.96307129 113.31797897 64.21203125 113.31686615 63.43823242 113.3157196 C56.45458023 113.2522273 56.45458023 113.2522273 53.65161133 112.15112305 C52.40161133 110.08862305 52.40161133 110.08862305 51.65161133 108.15112305 C53.87095297 104.82211058 54.99844462 104.40089061 58.65161133 103.15112305 C47.42935065 98.1761107 37.87460795 95.93703484 25.65161133 95.15112305 C25.65161133 94.49112305 25.65161133 93.83112305 25.65161133 93.15112305 C27.30161133 93.15112305 28.95161133 93.15112305 30.65161133 93.15112305 C30.65161133 92.49112305 30.65161133 91.83112305 30.65161133 91.15112305 C31.49344971 91.13654053 32.33528809 91.12195801 33.20263672 91.10693359 C36.35453823 91.04553151 39.50581594 90.97131574 42.65722656 90.88867188 C44.01583676 90.8556137 45.37457798 90.82752344 46.73339844 90.8046875 C57.14050741 90.79689136 57.14050741 90.79689136 66.65161133 87.15112305 C66.98161133 86.49112305 67.31161133 85.83112305 67.65161133 85.15112305 C64.72980469 81.79104541 62.36405862 81.2834428 57.99438477 80.94580078 C57.00986328 80.90914307 56.0253418 80.87248535 55.01098633 80.8347168 C53.94106445 80.79282227 52.87114258 80.75092773 51.76879883 80.70776367 C50.65762695 80.66844727 49.54645508 80.62913086 48.40161133 80.58862305 C46.71165039 80.52384766 46.71165039 80.52384766 44.98754883 80.45776367 C42.20902179 80.35180289 39.43040742 80.24973163 36.65161133 80.15112305 C37.14661133 78.66612305 37.14661133 78.66612305 37.65161133 77.15112305 C38.31161133 76.82112305 38.97161133 76.49112305 39.65161133 76.15112305 C35.15428965 74.41479634 31.48776199 73.9231274 26.67895508 73.9909668 C25.36733398 74.00192383 24.05571289 74.01288086 22.7043457 74.02416992 C21.33258986 74.04493676 19.9608448 74.06642776 18.58911133 74.08862305 C15.88987969 74.12518938 13.19084727 74.15323883 10.49145508 74.1784668 C9.2989917 74.19643311 8.10652832 74.21439941 6.87792969 74.23291016 C3.99000905 74.15970142 1.45240405 73.82451425 -1.34838867 73.15112305 C-1.34838867 72.16112305 -1.34838867 71.17112305 -1.34838867 70.15112305 C4.40161133 69.15112305 4.40161133 69.15112305 6.65161133 69.15112305 C6.65161133 68.49112305 6.65161133 67.83112305 6.65161133 67.15112305 C5.99161133 67.15112305 5.33161133 67.15112305 4.65161133 67.15112305 C5.31161133 65.50112305 5.97161133 63.85112305 6.65161133 62.15112305 C1.04634439 59.82781321 -4.47363835 57.68366661 -10.34838867 56.15112305 C-10.67838867 54.83112305 -11.00838867 53.51112305 -11.34838867 52.15112305 C-9.17647294 51.06516518 -7.68371626 50.88751848 -5.27807617 50.65112305 C-4.46338867 50.56862305 -3.64870117 50.48612305 -2.80932617 50.40112305 C-1.9559668 50.31862305 -1.10260742 50.23612305 -0.22338867 50.15112305 C11.92663324 49.1851415 11.92663324 49.1851415 23.65161133 46.15112305 C24.31418945 45.91135742 24.97676758 45.6715918 25.65942383 45.42456055 C32.13973695 43.53109602 32.13973695 43.53109602 36.65161133 39.15112305 C32.41284747 38.11807808 28.30214591 37.99743166 23.96411133 38.02612305 C23.25295166 38.02805664 22.54179199 38.02999023 21.80908203 38.03198242 C17.17175234 38.06990266 12.63727818 38.37892054 8.03051758 38.92456055 C2.24847255 39.4752315 -3.73290646 39.79658993 -9.34838867 38.15112305 C-9.01838867 37.16112305 -8.68838867 36.17112305 -8.34838867 35.15112305 C1.05661133 34.16112305 1.05661133 34.16112305 10.65161133 33.15112305 C10.65161133 32.49112305 10.65161133 31.83112305 10.65161133 31.15112305 C8.67161133 30.49112305 6.69161133 29.83112305 4.65161133 29.15112305 C4.65161133 27.83112305 4.65161133 26.51112305 4.65161133 25.15112305 C3.73871338 25.16159668 2.82581543 25.17207031 1.88525391 25.18286133 C-1.51597642 25.21703585 -4.91702309 25.24206689 -8.31835938 25.26098633 C-9.78778979 25.27101657 -11.25720038 25.28464406 -12.7265625 25.30200195 C-14.84404404 25.32638203 -16.96126066 25.33763591 -19.07885742 25.34643555 C-20.987677 25.362146 -20.987677 25.362146 -22.93505859 25.37817383 C-26.20674038 25.16054533 -28.41796233 24.5661493 -31.34838867 23.15112305 C-31.34838867 19.15112305 -31.34838867 19.15112305 -29.34838867 17.15112305 C-31.98838867 15.83112305 -34.62838867 14.51112305 -37.34838867 13.15112305 C-37.9455855 6.940276 -37.9455855 6.940276 -35.59838867 3.83862305 C-25.06806362 -1.62904573 -11.54183107 -0.09254601 0 0 Z M136.65161133 28.15112305 C140.65161133 29.15112305 140.65161133 29.15112305 140.65161133 29.15112305 Z " fill="#FCFBFC" transform="translate(38.348388671875,120.848876953125)"/>
<path d="M0 0 C1.57053826 4.71161477 -0.57355708 9.10422494 -1.99804688 13.72265625 C-4.63298249 22.94113417 -4.94491647 30.97670646 -6 41 C66.6 41 139.2 41 214 41 C213.67 38.69 213.34 36.38 213 34 C212.93747508 32.02171151 212.91306635 30.04162549 212.9375 28.0625 C212.94652344 27.10472656 212.95554688 26.14695312 212.96484375 25.16015625 C212.98224609 24.09087891 212.98224609 24.09087891 213 23 C213.33 23 213.66 23 214 23 C215.14544072 29.29992398 215.34294666 35.6050535 215 42 C213.15470765 43.84529235 210.54726128 43.12543891 208.09132242 43.13374341 C206.8068655 43.13039732 206.8068655 43.13039732 205.49645996 43.12698364 C204.59384603 43.12854363 203.6912321 43.13010362 202.76126623 43.13171089 C199.71257273 43.13572497 196.66392832 43.13252967 193.61523438 43.12939453 C191.43939688 43.13074839 189.26355961 43.13252824 187.08772278 43.13470459 C181.16021226 43.13928074 175.23271905 43.13748862 169.30520821 43.1343255 C163.11700517 43.13180284 156.92880367 43.13413918 150.74060059 43.13571167 C139.67966686 43.13765052 128.61874083 43.13453275 117.55780834 43.12945233 C107.51916648 43.12498429 97.48053618 43.12576022 87.44189453 43.13037109 C75.79782804 43.13569816 64.15376878 43.13771772 52.50970125 43.13475883 C46.34095259 43.13319562 40.1722119 43.13300347 34.00346375 43.13629532 C28.20547882 43.13917291 22.40751585 43.13720042 16.60953331 43.13140106 C14.474927 43.13007286 12.34031886 43.13046859 10.20571327 43.13266373 C7.30496348 43.13537287 4.40428521 43.13199701 1.50354004 43.12698364 C0.21908312 43.13032973 0.21908312 43.13032973 -1.09132242 43.13374341 C-6.88585018 43.11414982 -6.88585018 43.11414982 -8 42 C-8.05706449 33.33761112 -7.00261504 24.9399813 -5.125 16.5 C-4.96362549 15.77176025 -4.80225098 15.04352051 -4.63598633 14.29321289 C-3.47259932 9.3523461 -1.86110121 4.72187963 0 0 Z " fill="#E1D5DE" transform="translate(11,77)"/>
<path d="M0 0 C0.495 0.99 0.495 0.99 1 2 C0 4 0 4 -3 6 C-3.66 6.99 -4.32 7.98 -5 9 C-7.125 9.6875 -7.125 9.6875 -9 10 C-7.13501375 12.66426606 -5.54034149 13.86006126 -2.390625 14.67578125 C-0.45097392 15.01188481 1.49327489 15.32263285 3.44140625 15.60546875 C6 16 6 16 9 17 C9 17.66 9 18.32 9 19 C3.72 19 -1.56 19 -7 19 C-7 18.34 -7 17.68 -7 17 C-7.54527344 16.81824219 -8.09054688 16.63648438 -8.65234375 16.44921875 C-9.40644531 16.19785156 -10.16054687 15.94648438 -10.9375 15.6875 C-11.77152344 15.41421875 -12.60554688 15.1409375 -13.46484375 14.859375 C-14.99018679 14.34230956 -16.50729879 13.79826715 -18.00390625 13.203125 C-25.69235345 10.25413155 -33.86630373 9.79375911 -42 9 C-42 8.34 -42 7.68 -42 7 C-40.35 7 -38.7 7 -37 7 C-37 6.34 -37 5.68 -37 5 C-36.15816162 4.98541748 -35.31632324 4.97083496 -34.44897461 4.95581055 C-31.2970731 4.89440846 -28.14579539 4.82019269 -24.99438477 4.73754883 C-23.63577457 4.70449066 -22.27703334 4.67640039 -20.91821289 4.65356445 C-9.66880362 4.94439028 -9.66880362 4.94439028 0 0 Z " fill="#F9F7F8" transform="translate(106,207)"/>
<path d="M0 0 C-7.93840199 2.90830856 -15.58557044 3.64838839 -24 4 C-24 4.66 -24 5.32 -24 6 C-22.68 6.66 -21.36 7.32 -20 8 C-20 9.32 -20 10.64 -20 12 C-21.98 12.99 -21.98 12.99 -24 14 C-23.01 14.99 -22.02 15.98 -21 17 C-30.41002278 17.18451025 -30.41002278 17.18451025 -35 16 C-35 15.34 -35 14.68 -35 14 C-30.38 13.01 -25.76 12.02 -21 11 C-24.70883196 7.04732138 -24.70883196 7.04732138 -29.1875 5.8125 C-33 5 -33 5 -34 4 C-36.14558827 3.91224395 -38.29404421 3.89304781 -40.44140625 3.90234375 C-41.74658203 3.90556641 -43.05175781 3.90878906 -44.39648438 3.91210938 C-45.7851569 3.92046599 -47.17382877 3.92893095 -48.5625 3.9375 C-49.95507656 3.94251334 -51.34765481 3.94707653 -52.74023438 3.95117188 C-56.1601987 3.96300566 -59.58007844 3.9794912 -63 4 C-62.67 3.34 -62.34 2.68 -62 2 C-61.3935817 1.99191315 -60.78716339 1.98382629 -60.16236877 1.97549438 C-53.81873529 1.88906229 -47.47540049 1.78954432 -41.13208008 1.68261719 C-38.76852456 1.64446664 -36.40491374 1.60959013 -34.04125977 1.578125 C-30.63277495 1.53217113 -27.22466633 1.47422731 -23.81640625 1.4140625 C-22.76916885 1.40251129 -21.72193146 1.39096008 -20.64295959 1.37905884 C-15.1430845 1.26981711 -10.1556864 0.80581712 -4.84629822 -0.67471313 C-3 -1 -3 -1 0 0 Z " fill="#D3C7C7" transform="translate(209,146)"/>
<path d="M0 0 C0.495 0.99 0.495 0.99 1 2 C-1.40541929 3.20270964 -3.10366591 3.20316663 -5.7890625 3.31640625 C-7.20058594 3.37924805 -7.20058594 3.37924805 -8.640625 3.44335938 C-10.11789063 3.50233398 -10.11789063 3.50233398 -11.625 3.5625 C-13.11386719 3.62727539 -13.11386719 3.62727539 -14.6328125 3.69335938 C-17.08839838 3.79961069 -19.54408703 3.90164964 -22 4 C-22 4.66 -22 5.32 -22 6 C-19.36 6.33 -16.72 6.66 -14 7 C-14 7.99 -14 8.98 -14 10 C-19.946072 13.03910346 -25.36906706 13.65226572 -32 14 C-32 14.66 -32 15.32 -32 16 C-34.97 15.505 -34.97 15.505 -38 15 C-37.67 14.01 -37.34 13.02 -37 12 C-30.73 11.34 -24.46 10.68 -18 10 C-18 9.34 -18 8.68 -18 8 C-19.98 7.34 -21.96 6.68 -24 6 C-24 4.68 -24 3.36 -24 2 C-34.23 2 -44.46 2 -55 2 C-55 1.67 -55 1.34 -55 1 C-17.34184945 -0.19388403 -17.34184945 -0.19388403 0 0 Z " fill="#D2CFD1" transform="translate(67,144)"/>
<path d="M0 0 C0.99 0.66 1.98 1.32 3 2 C2.5 4.3125 2.5 4.3125 1 7 C-5.55435969 10.17810232 -11.54436305 10.49649183 -18.75 10.625 C-20.78655137 10.67610543 -22.82302001 10.73065336 -24.859375 10.7890625 C-25.75108398 10.80662598 -26.64279297 10.82418945 -27.56152344 10.84228516 C-29.83546653 10.98935837 -31.81704041 11.36695442 -34 12 C-29.67833265 13.44055578 -25.22476773 13.74250636 -20.71679688 14.25 C-15.20408163 14.89795918 -15.20408163 14.89795918 -13 16 C-13 16.66 -13 17.32 -13 18 C-13.99 17.67 -14.98 17.34 -16 17 C-17.55472655 16.81013507 -19.11445528 16.65959321 -20.67578125 16.53515625 C-21.58650391 16.45716797 -22.49722656 16.37917969 -23.43554688 16.29882812 C-25.34155893 16.14225823 -27.2478105 15.98857511 -29.15429688 15.83789062 C-34.05252945 15.4133081 -38.3885831 14.84611162 -43 13 C-43 12.34 -43 11.68 -43 11 C-33.8566263 8.60435624 -24.71499169 8.29247726 -15.30859375 7.7890625 C-14.05691406 7.71429688 -12.80523437 7.63953125 -11.515625 7.5625 C-9.81841309 7.47162109 -9.81841309 7.47162109 -8.08691406 7.37890625 C-5.06330283 7.00777017 -2.75424547 6.26980612 0 5 C0 3.35 0 1.7 0 0 Z " fill="#D2CBD0" transform="translate(198,167)"/>
<path d="M0 0 C0 0.33 0 0.66 0 1 C-0.80824219 1.06058594 -1.61648437 1.12117187 -2.44921875 1.18359375 C-4.05216797 1.30927734 -4.05216797 1.30927734 -5.6875 1.4375 C-6.74324219 1.51871094 -7.79898438 1.59992188 -8.88671875 1.68359375 C-11.65086297 1.96451681 -14.28945741 2.40156852 -17 3 C-17 3.66 -17 4.32 -17 5 C-15.02 5.33 -13.04 5.66 -11 6 C-10.505 7.485 -10.505 7.485 -10 9 C-20.48104324 15.85515613 -34.20378134 14.24789694 -46.25 14.125 C-47.97785937 14.11494488 -49.70572443 14.10582353 -51.43359375 14.09765625 C-55.62253923 14.07585539 -59.81120494 14.0414669 -64 14 C-64 13.67 -64 13.34 -64 13 C-62.48031616 12.96241577 -62.48031616 12.96241577 -60.92993164 12.92407227 C-57.13343921 12.82915355 -53.33709423 12.72914713 -49.54077148 12.62768555 C-47.90473913 12.58465327 -46.26867095 12.54295935 -44.63256836 12.50268555 C-32.2845367 12.21412114 -32.2845367 12.21412114 -20 11 C-20 8.36 -20 5.72 -20 3 C-13.45841601 -0.65111665 -7.36120371 -0.29887594 0 0 Z " fill="#E5E2E5" transform="translate(160,220)"/>
<path d="M0 0 C0.99 0.495 0.99 0.495 2 1 C4.7487347 1.1329671 7.47624306 1.21001754 10.2265625 1.24609375 C11.91536927 1.27905764 13.60417123 1.31226882 15.29296875 1.34570312 C17.95227444 1.39291987 20.61156431 1.43730041 23.27099609 1.47680664 C25.83973441 1.51684578 28.40805812 1.56833682 30.9765625 1.62109375 C32.15202133 1.63371498 32.15202133 1.63371498 33.35122681 1.64659119 C38.51679237 1.76064457 43.02660814 2.58685562 48 4 C47.01 4.99 46.02 5.98 45 7 C46.24136719 7.12117187 47.48273438 7.24234375 48.76171875 7.3671875 C50.40368526 7.53607548 52.04561023 7.7053676 53.6875 7.875 C54.91243164 7.99294922 54.91243164 7.99294922 56.16210938 8.11328125 C60.42628372 8.56214171 64.08937454 9.10442187 68 11 C65.43758233 12.28120883 64.7239186 11.71202826 62 11 C60.12243262 10.85492152 58.24123507 10.75366301 56.359375 10.68359375 C55.28945312 10.64169922 54.21953125 10.59980469 53.1171875 10.55664062 C52.00601563 10.51732422 50.89484375 10.47800781 49.75 10.4375 C48.62335938 10.39431641 47.49671875 10.35113281 46.3359375 10.30664062 C43.55741046 10.20067985 40.77879609 10.09860858 38 10 C38.33 9.01 38.66 8.02 39 7 C39.66 6.67 40.32 6.34 41 6 C36.50267832 4.26367329 32.83615066 3.77200435 28.02734375 3.83984375 C26.71572266 3.85080078 25.40410156 3.86175781 24.05273438 3.87304688 C22.68097853 3.89381371 21.30923347 3.91530471 19.9375 3.9375 C17.23826836 3.97406634 14.53923594 4.00211579 11.83984375 4.02734375 C10.64738037 4.04531006 9.45491699 4.06327637 8.22631836 4.08178711 C5.33839772 4.00857838 2.80079272 3.67339121 0 3 C0 2.01 0 1.02 0 0 Z " fill="#D8D5D9" transform="translate(37,191)"/>
<path d="M0 0 C0.66 0 1.32 0 2 0 C2 0.99 2 1.98 2 3 C3.175625 3.103125 4.35125 3.20625 5.5625 3.3125 C8.51205925 3.57123327 10.30564192 4.15282096 13 5.5 C18.2235082 7.83411702 23.80821266 7.57057118 29.4375 7.6875 C30.55060547 7.72166016 31.66371094 7.75582031 32.81054688 7.79101562 C35.54026383 7.87302429 38.2696786 7.94232837 41 8 C41.495 8.99 41.495 8.99 42 10 C38.76603521 11.61698239 35.18559803 11.3403054 31.625 11.5 C30.09618406 11.56925844 28.5675238 11.6420625 27.0390625 11.71875 C26.02126709 11.76418945 26.02126709 11.76418945 24.98291016 11.81054688 C22.87833319 12.01162441 21.00623917 12.32674359 19 13 C18.67 13.66 18.34 14.32 18 15 C17.34 15 16.68 15 16 15 C16.66 13.35 17.32 11.7 18 10 C12.39473306 7.67669016 6.87475032 5.53254356 1 4 C0.67 2.68 0.34 1.36 0 0 Z " fill="#D4CACD" transform="translate(27,173)"/>
<path d="M0 0 C0.495 0.99 0.495 0.99 1 2 C0 4 0 4 -3 6 C-3.66 6.99 -4.32 7.98 -5 9 C-6.32 9 -7.64 9 -9 9 C-9.33 8.34 -9.66 7.68 -10 7 C-18.91 7 -27.82 7 -37 7 C-37 6.34 -37 5.68 -37 5 C-35.73724243 4.97812622 -35.73724243 4.97812622 -34.44897461 4.95581055 C-31.2970731 4.89440846 -28.14579539 4.82019269 -24.99438477 4.73754883 C-23.63577457 4.70449066 -22.27703334 4.67640039 -20.91821289 4.65356445 C-9.66880362 4.94439028 -9.66880362 4.94439028 0 0 Z " fill="#D5D3D5" transform="translate(106,207)"/>
<path d="M0 0 C6.72938085 0.2757943 12.36113444 1.11905416 18 5 C20 7.25 20 7.25 21 9 C20.34 10.32 19.68 11.64 19 13 C14.71 13 10.42 13 6 13 C6.99 12.34 7.98 11.68 9 11 C10.68615782 9.35305515 12.35570171 7.68873879 14 6 C10.98509443 3.99006295 8.7850073 3.27376659 5.3125 2.375 C4.31863281 2.11460937 3.32476562 1.85421875 2.30078125 1.5859375 C1.16189453 1.29589844 1.16189453 1.29589844 0 1 C0 0.67 0 0.34 0 0 Z " fill="#DFDDDC" transform="translate(149,196)"/>
<path d="M0 0 C-4.75 3.875 -4.75 3.875 -7 5 C-7 5.99 -7 6.98 -7 8 C-7.5775 7.79375 -8.155 7.5875 -8.75 7.375 C-13.42327996 6.59612001 -18.05273093 10.76659446 -21.81640625 13.26953125 C-23.98852177 14.99090366 -25.34450868 16.581589 -26.875 18.875 C-27.57625 19.90625 -28.2775 20.9375 -29 22 C-29.99 22 -30.98 22 -32 22 C-32.99 22.66 -33.98 23.32 -35 24 C-33.44251274 19.98970346 -30.65197675 17.57898195 -27.4375 14.875 C-26.87756348 14.40288086 -26.31762695 13.93076172 -25.74072266 13.44433594 C-21.04304615 9.61225573 -16.07883943 6.35169991 -10.875 3.25 C-10.14079834 2.80769043 -9.40659668 2.36538086 -8.65014648 1.90966797 C-3.37797562 -1.12599187 -3.37797562 -1.12599187 0 0 Z " fill="#D1CFD0" transform="translate(70,18)"/>
<path d="M0 0 C23.58238484 -0.20638953 23.58238484 -0.20638953 35 1 C34.01 1.33 33.02 1.66 32 2 C32.66 3.32 33.32 4.64 34 6 C33.30519531 5.79503906 32.61039063 5.59007812 31.89453125 5.37890625 C21.34257729 2.58377523 10.86554098 2.27891972 0 2 C0 1.34 0 0.68 0 0 Z " fill="#C9C1C3" transform="translate(182,133)"/>
<path d="M0 0 C2.87521035 0.53910194 5.67213129 1.18003517 8.5 1.9375 C13.32322245 3.17327784 18.21950955 3.83653066 23.14453125 4.53515625 C26 5 26 5 29 6 C29 6.66 29 7.32 29 8 C23.72 8 18.44 8 13 8 C13 7.34 13 6.68 13 6 C12.39671875 5.81824219 11.7934375 5.63648438 11.171875 5.44921875 C3.23374341 2.95254833 3.23374341 2.95254833 0 0 Z " fill="#CCBDC6" transform="translate(86,218)"/>
<path d="M0 0 C1.28777344 0.08378906 2.57554688 0.16757813 3.90234375 0.25390625 C5.58071227 0.35704621 7.25909864 0.45989584 8.9375 0.5625 C10.21270508 0.64661133 10.21270508 0.64661133 11.51367188 0.73242188 C12.32255859 0.78076172 13.13144531 0.82910156 13.96484375 0.87890625 C15.08814087 0.94960327 15.08814087 0.94960327 16.23413086 1.02172852 C18.02755899 1.2052254 18.02755899 1.2052254 19 0 C21.67058851 -0.14115161 24.32432238 -0.04247107 27 0 C27 0.66 27 1.32 27 2 C25.75863281 2.12117187 24.51726563 2.24234375 23.23828125 2.3671875 C21.59631474 2.53607548 19.95438977 2.7053676 18.3125 2.875 C17.08756836 2.99294922 17.08756836 2.99294922 15.83789062 3.11328125 C11.57371628 3.56214171 7.91062546 4.10442187 4 6 C4 6.66 4 7.32 4 8 C4.99 8.66 5.98 9.32 7 10 C5.35 9.67 3.7 9.34 2 9 C2 5 2 5 4 3 C2.68 2.34 1.36 1.68 0 1 C0 0.67 0 0.34 0 0 Z " fill="#CCC3C7" transform="translate(5,135)"/>
<path d="M0 0 C1.20571655 -0.032146 1.20571655 -0.032146 2.43579102 -0.06494141 C7.80389169 -0.09491529 11.45718335 0.81514662 16.25 3.25 C15.25 6.25 15.25 6.25 12.3125 8 C11.301875 8.4125 10.29125 8.825 9.25 9.25 C8.59 8.92 7.93 8.59 7.25 8.25 C8.054375 7.79625 8.85875 7.3425 9.6875 6.875 C12.33856572 5.50274335 12.33856572 5.50274335 13.25 3.25 C1.25188298 0.3649566 -12.53200092 2.40320798 -24.75 3.25 C-17.46270259 -0.83354251 -8.15006026 0.12104439 0 0 Z " fill="#DDD8D8" transform="translate(61.75,156.75)"/>
<path d="M0 0 C0.89589844 0.00322266 1.79179688 0.00644531 2.71484375 0.00976562 C4.12056641 0.02233398 4.12056641 0.02233398 5.5546875 0.03515625 C6.49957031 0.03966797 7.44445313 0.04417969 8.41796875 0.04882812 C10.75527137 0.06063268 13.09244811 0.07709866 15.4296875 0.09765625 C15.7596875 0.75765625 16.0896875 1.41765625 16.4296875 2.09765625 C13.97693609 3.32403195 12.3791094 3.21180939 9.640625 3.1953125 C8.69960938 3.19208984 7.75859375 3.18886719 6.7890625 3.18554688 C5.80421875 3.17716797 4.819375 3.16878906 3.8046875 3.16015625 C2.81210937 3.15564453 1.81953125 3.15113281 0.796875 3.14648438 C-1.6589141 3.1346777 -4.11458354 3.11821025 -6.5703125 3.09765625 C-6.5703125 2.43765625 -6.5703125 1.77765625 -6.5703125 1.09765625 C-4.16971433 -0.10264283 -2.67670601 -0.01694118 0 0 Z " fill="#D2C6C5" transform="translate(51.5703125,143.90234375)"/>
<path d="M0 0 C0.99 0.33 1.98 0.66 3 1 C2.01 1.66 1.02 2.32 0 3 C-0.33 3.99 -0.66 4.98 -1 6 C0.2375 5.938125 1.475 5.87625 2.75 5.8125 C8.675144 5.80306506 14.42003145 7.02527087 20 9 C20.33 9.66 20.66 10.32 21 11 C20.41734375 10.86722656 19.8346875 10.73445312 19.234375 10.59765625 C13.34483852 9.32899823 7.57809497 8.63015209 1.56640625 8.24609375 C-1 8 -1 8 -4 7 C-3.43628586 3.73045798 -2.50037734 2.17424117 0 0 Z " fill="#D0CDCE" transform="translate(152,209)"/>
<path d="M0 0 C7.4488189 1.01574803 7.4488189 1.01574803 10 3 C10.875 6 10.875 6 11 9 C10.34 9.66 9.68 10.32 9 11 C6.9375 10.75 6.9375 10.75 5 10 C4.67 9.34 4.34 8.68 4 8 C4.33 7.01 4.66 6.02 5 5 C4.54625 4.54625 4.0925 4.0925 3.625 3.625 C2.41666667 2.41666667 1.20833333 1.20833333 0 0 Z M6 8 C7 10 7 10 7 10 Z " fill="#F1EFF0" transform="translate(188,163)"/>
<path d="M0 0 C8.415 1.98 8.415 1.98 17 4 C17 4.99 17 5.98 17 7 C10.80481527 6.58411954 5.73310689 5.39748106 0 3 C0 2.01 0 1.02 0 0 Z " fill="#F2EFF2" transform="translate(161,217)"/>
<path d="M0 0 C-0.33 2.31 -0.66 4.62 -1 7 C-2.65 7.33 -4.3 7.66 -6 8 C-6.66 6.68 -7.32 5.36 -8 4 C-5.52914451 0.29371676 -4.37054922 0 0 0 Z " fill="#ECEAED" transform="translate(98,225)"/>
<path d="M0 0 C0.66 0.33 1.32 0.66 2 1 C2.1875 3.375 2.1875 3.375 2 6 C-1.4352048 8.29013653 -2.985331 8.17842973 -7 8 C-7 7.01 -7 6.02 -7 5 C-5.02 5 -3.04 5 -1 5 C-0.67 3.35 -0.34 1.7 0 0 Z " fill="#ECE9ED" transform="translate(46,185)"/>
<path d="M0 0 C0.66 1.32 1.32 2.64 2 4 C-0.35380297 7.92300495 -2.64464931 8.83857315 -7 10 C-5.6062718 5.56541027 -3.39417765 3.12621626 0 0 Z " fill="#E7E6E7" transform="translate(32,44)"/>
<path d="M0 0 C0 0.33 0 0.66 0 1 C-0.80824219 1.06058594 -1.61648437 1.12117187 -2.44921875 1.18359375 C-4.05216797 1.30927734 -4.05216797 1.30927734 -5.6875 1.4375 C-6.74324219 1.51871094 -7.79898438 1.59992188 -8.88671875 1.68359375 C-11.65086297 1.96451681 -14.28945741 2.40156852 -17 3 C-17 3.66 -17 4.32 -17 5 C-15.68 5.33 -14.36 5.66 -13 6 C-14.98 6 -16.96 6 -19 6 C-19.33 5.01 -19.66 4.02 -20 3 C-13.45841601 -0.65111665 -7.36120371 -0.29887594 0 0 Z " fill="#C8C1C3" transform="translate(160,220)"/>
<path d="M0 0 C0.33 0.66 0.66 1.32 1 2 C0 4 0 4 -3 6 C-3.99 7.485 -3.99 7.485 -5 9 C-6.32 9 -7.64 9 -9 9 C-8.9375 6.6875 -8.9375 6.6875 -8 4 C-4.5 2.25 -4.5 2.25 -1 1 C-0.67 0.67 -0.34 0.34 0 0 Z " fill="#E7E4E5" transform="translate(106,207)"/>
<path d="M0 0 C1.04285156 -0.00515625 2.08570313 -0.0103125 3.16015625 -0.015625 C5.9375 0.25 5.9375 0.25 8.9375 2.25 C2.6675 2.25 -3.6025 2.25 -10.0625 2.25 C-6.04528576 0.24139288 -4.34862184 -0.02155451 0 0 Z " fill="#E1E0E5" transform="translate(55.0625,199.75)"/>
<path d="M0 0 C9.41002278 -0.3690205 9.41002278 -0.3690205 14 2 C14 2.33 14 2.66 14 3 C4.58997722 3.18451025 4.58997722 3.18451025 0 2 C0 1.34 0 0.68 0 0 Z " fill="#CABDBF" transform="translate(174,160)"/>
<path d="M0 0 C2 0.0625 2 0.0625 4 1 C5.25 3.5625 5.25 3.5625 6 6 C5.01 6.495 5.01 6.495 4 7 C2.68 5.68 1.36 4.36 0 3 C0 4.98 0 6.96 0 9 C-0.66 9 -1.32 9 -2 9 C-2.125 5.625 -2.125 5.625 -2 2 C-1.34 1.34 -0.68 0.68 0 0 Z " fill="#EEEEEF" transform="translate(3,125)"/>
<path d="M0 0 C1.4370809 -0.05422947 2.87475462 -0.09289723 4.3125 -0.125 C5.11300781 -0.14820313 5.91351563 -0.17140625 6.73828125 -0.1953125 C9 0 9 0 12 2 C9.1875 3.5625 9.1875 3.5625 6 5 C5.01 4.67 4.02 4.34 3 4 C3.66 3.67 4.32 3.34 5 3 C2.525 2.01 2.525 2.01 0 1 C0 0.67 0 0.34 0 0 Z " fill="#BCB2B6" transform="translate(73,194)"/>
<path d="M0 0 C1.21236328 0.01353516 1.21236328 0.01353516 2.44921875 0.02734375 C3.37154297 0.04474609 3.37154297 0.04474609 4.3125 0.0625 C1.3125 2.0625 1.3125 2.0625 -1.6875 2.0625 C-1.6875 2.7225 -1.6875 3.3825 -1.6875 4.0625 C-4.6575 3.5675 -4.6575 3.5675 -7.6875 3.0625 C-7.6875 2.4025 -7.6875 1.7425 -7.6875 1.0625 C-4.80538698 0.10179566 -2.98899956 -0.04331883 0 0 Z " fill="#C1B7B9" transform="translate(162.6875,176.9375)"/>
<path d="M0 0 C-4.75 3.875 -4.75 3.875 -7 5 C-7 5.99 -7 6.98 -7 8 C-8.32 7.67 -9.64 7.34 -11 7 C-8.53661745 2.20288662 -5.72998459 -1.90999486 0 0 Z " fill="#E7E3E1" transform="translate(70,18)"/>
<path d="M0 0 C0 0.99 0 1.98 0 3 C-2.375 4.75 -2.375 4.75 -5 6 C-5.66 5.67 -6.32 5.34 -7 5 C-6.625 2.5625 -6.625 2.5625 -6 0 C-3.50907189 -1.24546405 -2.58919267 -0.7767578 0 0 Z " fill="#E8E7E9" transform="translate(217,139)"/>
<path d="M0 0 C3.93673644 1.31224548 6.22719294 2.91910327 9 6 C3.375 6.25 3.375 6.25 0 4 C0 2.68 0 1.36 0 0 Z " fill="#E3E3E3" transform="translate(171,23)"/>
<path d="M0 0 C0 0.66 0 1.32 0 2 C-1.98 2.33 -3.96 2.66 -6 3 C-6 3.66 -6 4.32 -6 5 C-8.97 4.505 -8.97 4.505 -12 4 C-11.67 3.01 -11.34 2.02 -11 1 C-9.54182203 0.83197949 -8.0834516 0.66562857 -6.625 0.5 C-5.81289063 0.4071875 -5.00078125 0.314375 -4.1640625 0.21875 C-2 0 -2 0 0 0 Z " fill="#E2E1DF" transform="translate(41,155)"/>
<path d="M0 0 C0 3.92896395 -1.00299863 7.19893228 -2 11 C-2.99 11 -3.98 11 -5 11 C-5.33 10.34 -5.66 9.68 -6 9 C-4.02 6.03 -2.04 3.06 0 0 Z " fill="#DDD7D6" transform="translate(22,57)"/>
<path d="M0 0 C1.65 0.33 3.3 0.66 5 1 C4 4 4 4 1.0625 5.75 C-0.4534375 6.36875 -0.4534375 6.36875 -2 7 C-2.66 6.67 -3.32 6.34 -4 6 C-3.195625 5.54625 -2.39125 5.0925 -1.5625 4.625 C1.08856572 3.25274335 1.08856572 3.25274335 2 1 C1.34 0.67 0.68 0.34 0 0 Z " fill="#C1BDBD" transform="translate(73,159)"/>
<path d="M0 0 C1.33332095 2.6666419 0.67102033 4.16680303 0 7 C-1.9375 6.1875 -1.9375 6.1875 -4 5 C-4.33 4.01 -4.66 3.02 -5 2 C-3.35 1.34 -1.7 0.68 0 0 Z " fill="#E9E4E4" transform="translate(110,201)"/>
<path d="M0 0 C0.598125 0.226875 1.19625 0.45375 1.8125 0.6875 C0.52284824 2.06312854 -0.81439293 3.39516393 -2.1875 4.6875 C-2.8475 4.6875 -3.5075 4.6875 -4.1875 4.6875 C-5.1775 5.3475 -6.1675 6.0075 -7.1875 6.6875 C-3.9375 -0.5625 -3.9375 -0.5625 0 0 Z " fill="#E1E0E4" transform="translate(42.1875,35.3125)"/>
<path d="M0 0 C0.99 0.33 1.98 0.66 3 1 C2.01 1.495 2.01 1.495 1 2 C0.34444881 4.52733235 0.34444881 4.52733235 0 7 C-2 6 -2 6 -3 3 C-2.01 2.01 -1.02 1.02 0 0 Z " fill="#F6F2F4" transform="translate(140,185)"/>
<path d="M0 0 C-0.99 0.33 -1.98 0.66 -3 1 C-2.34 2.32 -1.68 3.64 -1 5 C-3.02045442 4.39816251 -5.02111039 3.72693904 -7 3 C-7.33 2.34 -7.66 1.68 -8 1 C-5.29120665 -0.35439668 -2.99066732 -0.06501451 0 0 Z " fill="#BDB3B6" transform="translate(217,134)"/>
<path d="M0 0 C0.66 0.33 1.32 0.66 2 1 C1.75 2.875 1.75 2.875 1 5 C-1.0625 6.25 -1.0625 6.25 -3 7 C-3 3.48283697 -2.17554415 2.62878252 0 0 Z " fill="#F7F9F8" transform="translate(45,33)"/>
</svg>
